<svg version="1.2" xmlns="http://www.w3.org/2000/svg" viewBox="0 0 512 512" width="512" height="512">
	<style>
		.s0 { fill: #b9d2d6;stroke: #000000;paint-order:stroke fill markers;stroke-linejoin: round;stroke-width: 40 } 
		.s1 { fill: #9fbdbf } 
		.s2 { fill: #d5e5e5 } 
		.s3 { fill: #f4d48b;stroke: #000000;paint-order:stroke fill markers;stroke-linejoin: round;stroke-width: 40 } 
		.s4 { fill: #e6bc68 } 
		.s5 { fill: #fae4aa } 
		.s6 { fill: #000000 } 
		.s7 { fill: none;stroke: #000000;stroke-linecap: round;stroke-width: 20 } 
	</style>
	<g id="Folder 1 copy">
		<g id="middle">
			<path id="middle" class="s0" d="m30.89 380.99c28.41 52.12 56.54 61.9 99.66 90.92 39.75 26.77 309.58-31.36 349.8-22.46 10.69 2.37 11.12-86.9-43.46-106.03-143.53-50.31-458.76-59.2-406 37.57z"/>
			<path id="shadow" class="s1" d="m67.15 428.41c18.03 16.14 38.16 26.51 63.4 43.5 39.75 26.77 309.58-31.36 349.8-22.46 4.15 0.92 6.76-11.98 5.19-29.22-138.77 23.27-308.46 51.26-418.39 8.18z"/>
			<path id="light" class="s2" d="m467.79 367.79c-7.43-10.76-17.51-19.68-30.9-24.37-130.5-45.74-402.92-57.24-411.67 13.78 113.45-51.62 307.64-31.54 442.57 10.59z"/>
		</g>
		<g id="top">
			<path id="top" class="s3" d="m84.22 229.2c0 0 38.56-160.64 71.59-189.66 33.03-29.01 227.74 44.89 256.35 95.18 28.61 50.3 7.95 123.03 7.95 123.03-13.12 40.2-350.88 17.35-335.89-28.55z"/>
			<path id="shadow" class="s4" d="m84.22 229.2c0 0 6.23-24.9 8.63-33.33 3.2 25.84 328.12 71.55 331.44 41.9 1.39-12.4-4.18 19.98-4.18 19.98-13.12 40.2-350.88 17.35-335.89-28.55z"/>
			<path id="light" class="s5" d="m138.08 65.54c11.17-23.81 11.91-20.88 17.73-26 33.03-29.01 227.74 44.89 256.35 95.18 5.34 9.4 16.1 38.52 10.68 31.54-59.23-76.29-193.83-117.6-284.76-100.72z"/>
		</g>
	</g>
	<g id="face">
		<path fill-rule="evenodd" class="s6" d="m205.09 148.41c-11.07 0-20.02-9.07-20.02-20.3 0-11.22 8.95-20.29 20.02-20.29 11.07 0 20.02 9.07 20.02 20.29 0 11.23-8.95 20.3-20.02 20.3z"/>
		<path fill-rule="evenodd" class="s6" d="m306.35 150.59c-11.06 0-20.01-9.07-20.01-20.3 0-11.22 8.95-20.29 20.01-20.29 11.07 0 20.02 9.07 20.02 20.29 0 11.23-8.95 20.3-20.02 20.3z"/>
		<path id="Layer 3" fill-rule="evenodd" class="s7" d="m201.71 183c2 46.39 108.92 54.16 108.92 0"/>
	</g>
</svg>