<svg version="1.2" xmlns="http://www.w3.org/2000/svg" viewBox="0 0 400 400" width="400" height="400">
	<style>
		.s0 { fill: #f8d165;stroke: #000000;paint-order:stroke fill markers;stroke-linejoin: round;stroke-width: 31.5 } 
		.s1 { fill: #e4ae4d } 
		.s2 { fill: #ffe395 } 
		.s3 { fill: #000000 } 
		.s4 { fill: none;stroke: #000000;stroke-linecap: round;stroke-width: 20 } 
	</style>
	<g id="top">
		<path id="top" class="s0" d="m18.82 311.26c0 0 20.39-210.18 51.7-251.07 31.31-40.88 247.18 31.4 283.92 92.55 36.75 61.14 24.14 156.64 24.14 156.64-8.79 53.03-369.82 62.34-359.76 1.88z"/>
		<path id="shadow" class="s1" d="m18.82 311.26c0 0 3.49-32.63 4.91-43.65 6.67 32.73 356.98 54.08 356.78 15.76-0.08-16-1.83 26-1.83 26-8.79 53.03-369.82 62.34-359.76 1.88z"/>
		<path id="light" class="s2" d="m55.05 95.55c8.79-31.77 9.97-28.07 15.47-35.36 31.31-40.88 247.18 31.4 283.92 92.55 6.87 11.44 22.01 47.44 15.36 39.2-72.48-90.98-220.54-128.41-314.75-96.39z"/>
	</g>
	<g id="face">
		<path fill-rule="evenodd" class="s3" d="m149.1 194.4c-11.1 0-20-9.1-20-20.3 0-11.2 8.9-20.3 20-20.3 11.1 0 20 9.1 20 20.3 0 11.2-8.9 20.3-20 20.3z"/>
		<path fill-rule="evenodd" class="s3" d="m250.4 196.6c-11.1 0-20-9.1-20-20.3 0-11.2 8.9-20.3 20-20.3 11.1 0 20 9.1 20 20.3 0 11.2-8.9 20.3-20 20.3z"/>
		<path id="Layer 3" fill-rule="evenodd" class="s4" d="m145.7 229c2 46.4 108.9 54.2 108.9 0"/>
	</g>
</svg>